<svg width="96" height="96" xmlns="http://www.w3.org/2000/svg" xmlns:xlink="http://www.w3.org/1999/xlink" overflow="hidden"><defs><clipPath id="clip0"><rect x="163" y="172" width="96" height="96"/></clipPath></defs><g clip-path="url(#clip0)" transform="translate(-163 -172)"><path d="M211 258.3C204.5 258.3 198.8 253.7 197.4 247.4 195.9 241 199.1 234.5 205 231.7L205 187.7C205 184.4 207.7 181.7 211 181.7 214.3 181.7 217 184.4 217 187.7L217 231.7C222.9 234.5 226 241 224.6 247.4 223.1 253.7 217.5 258.2 211 258.3L211 258.3ZM223 228.3 223 187.7C223 181.1 217.6 175.7 211 175.7 204.4 175.7 199 181 199 187.7L199 228.3C192.1 233.5 189.3 242.5 192 250.6 194.7 258.8 202.4 264.3 211 264.3 219.6 264.3 227.3 258.8 230 250.6 232.7 242.5 229.9 233.5 223 228.3Z" fill="#548235"/><path d="M213 234.5 213 210.3 209 210.3 209 234.5C204 235.5 200.5 240.2 201.1 245.3 201.6 250.4 205.9 254.3 211 254.3 216.1 254.3 220.4 250.4 220.9 245.3 221.5 240.2 218 235.5 213 234.5Z" fill="#548235"/></g></svg>