<?xml version="1.0" encoding="utf-8"?>
<svg version="1.1" xmlns="http://www.w3.org/2000/svg" xmlns:xlink="http://www.w3.org/1999/xlink" width="46" height="46">
<rect id="icon-back_8_" style="fill:none;" width="46" height="46" />
<path id="icon-shadow_37_" style="opacity:0.2;" d="M35.3,12h-2.2c-0.4,0-0.7,0.3-0.7,0.7v3.2h-8.2v-0.2c0-1-0.8-1.8-1.8-1.8h0  c-1,0-1.8,0.8-1.8,1.8v0.2H19v-0.2c0-1-0.8-1.8-1.8-1.8h0c-1,0-1.8,0.8-1.8,1.8v0.2h-2v-3.2c0-0.4-0.3-0.7-0.7-0.7h-2.2  c-0.4,0-0.7,0.3-0.7,0.7v24.7c0,0.4,0.3,0.7,0.7,0.7h2.2c0.4,0,0.7-0.3,0.7-0.7v-3.2h1.4v0.3c0,1,0.8,1.8,1.8,1.8h0  c1,0,1.8-0.8,1.8-1.8v-0.3h1.7v0.3c0,1,0.8,1.8,1.8,1.8h0c1,0,1.8-0.8,1.8-1.8v-0.3h8.8v3.2c0,0.4,0.3,0.7,0.7,0.7h2.2  c0.4,0,0.7-0.3,0.7-0.7V12.7C36,12.3,35.7,12,35.3,12L35.3,12z M15.4,17.2v0.4c0,1,0.8,1.8,1.8,1.8h0c1,0,1.8-0.8,1.8-1.8v-0.4h1.7  v0.4c0,1,0.8,1.8,1.8,1.8h0c1,0,1.8-0.8,1.8-1.8v-0.4h8.2v7.2h-2.4v-0.5c0-1-0.8-1.8-1.8-1.8h0c-1,0-1.8,0.8-1.8,1.8v0.5h-1.7v-0.5  c0-1-0.8-1.8-1.8-1.8h0c-1,0-1.8,0.8-1.8,1.8v0.5h-7.8v-7.2H15.4z M23.7,32.8v-0.3c0-1-0.8-1.8-1.8-1.8h0c-1,0-1.8,0.8-1.8,1.8v0.3  h-1.7v-0.3c0-1-0.8-1.8-1.8-1.8h0c-1,0-1.8,0.8-1.8,1.8v0.3h-1.4v-7.2h7.8v0.1c0,1,0.8,1.8,1.8,1.8h0c1,0,1.8-0.8,1.8-1.8v-0.1h1.7  v0.1c0,1,0.8,1.8,1.8,1.8h0c1,0,1.8-0.8,1.8-1.8v-0.1h2.4v7.2H23.7z M23.7,32.8" />
<path id="icon_46_" style="fill:#FFFFFF;" d="M35.3,10h-2.2c-0.4,0-0.7,0.3-0.7,0.7v3.2h-8.2v-0.2c0-1-0.8-1.8-1.8-1.8h0  c-1,0-1.8,0.8-1.8,1.8v0.2H19v-0.2c0-1-0.8-1.8-1.8-1.8h0c-1,0-1.8,0.8-1.8,1.8v0.2h-2v-3.2c0-0.4-0.3-0.7-0.7-0.7h-2.2  c-0.4,0-0.7,0.3-0.7,0.7v24.7c0,0.4,0.3,0.7,0.7,0.7h2.2c0.4,0,0.7-0.3,0.7-0.7v-3.2h1.4v0.3c0,1,0.8,1.8,1.8,1.8h0  c1,0,1.8-0.8,1.8-1.8v-0.3h1.7v0.3c0,1,0.8,1.8,1.8,1.8h0c1,0,1.8-0.8,1.8-1.8v-0.3h8.8v3.2c0,0.4,0.3,0.7,0.7,0.7h2.2  c0.4,0,0.7-0.3,0.7-0.7V10.7C36,10.3,35.7,10,35.3,10L35.3,10z M15.4,15.2v0.4c0,1,0.8,1.8,1.8,1.8h0c1,0,1.8-0.8,1.8-1.8v-0.4h1.7  v0.4c0,1,0.8,1.8,1.8,1.8h0c1,0,1.8-0.8,1.8-1.8v-0.4h8.2v7.2h-2.4v-0.5c0-1-0.8-1.8-1.8-1.8h0c-1,0-1.8,0.8-1.8,1.8v0.5h-1.7v-0.5  c0-1-0.8-1.8-1.8-1.8h0c-1,0-1.8,0.8-1.8,1.8v0.5h-7.8v-7.2H15.4z M23.7,30.8v-0.3c0-1-0.8-1.8-1.8-1.8h0c-1,0-1.8,0.8-1.8,1.8v0.3  h-1.7v-0.3c0-1-0.8-1.8-1.8-1.8h0c-1,0-1.8,0.8-1.8,1.8v0.3h-1.4v-7.2h7.8v0.1c0,1,0.8,1.8,1.8,1.8h0c1,0,1.8-0.8,1.8-1.8v-0.1h1.7  v0.1c0,1,0.8,1.8,1.8,1.8h0c1,0,1.8-0.8,1.8-1.8v-0.1h2.4v7.2H23.7z M23.7,30.8" />
</svg>